<svg width="24" height="32" viewBox="0 0 24 32" fill="none" xmlns="http://www.w3.org/2000/svg">
<path d="M23.6433 23.6553L18.6503 17.9999H20.5646C21.1277 17.9999 21.6259 17.6874 21.8633 17.1836C22.1008 16.6811 22.0227 16.1049 21.6584 15.6806L16.7754 10.0001H18.581C19.1497 10.0001 19.6622 9.66576 19.8847 9.14953C20.1047 8.64142 20.0009 8.05019 19.6197 7.64458L12.728 0.302333C12.3512 -0.100778 11.6481 -0.100778 11.2706 0.302333L4.37832 7.64458C3.99708 8.05019 3.89396 8.64142 4.11333 9.14953C4.33582 9.66576 4.84893 10.0001 5.41766 10.0001H7.22323L2.33964 15.6818C1.97653 16.1055 1.89841 16.6811 2.13527 17.1843C2.37277 17.6874 2.87025 17.9999 3.43398 17.9999H5.34829L0.355335 23.6553C-0.0196525 24.0796 -0.10465 24.6609 0.132842 25.1715C0.367209 25.6746 0.882817 25.9996 1.44592 25.9996H9.99938V27.5277L8.10632 30.5525C7.77383 31.2175 8.25757 32 9.00066 32H14.998C15.7411 32 16.2248 31.2175 15.8923 30.5525L13.9992 27.5277V25.9996H22.5527C23.1158 25.9996 23.6314 25.6746 23.8658 25.1715C24.1033 24.6609 24.0183 24.0796 23.6433 23.6553Z" fill="white"/>
</svg>
